<svg width="318" height="68" viewBox="0 0 318 68" fill="none" xmlns="http://www.w3.org/2000/svg">
<path d="M62.672 55.288C61.328 55.288 60.1227 55.064 59.056 54.616C57.9893 54.1467 57.1467 53.5067 56.528 52.696C55.9093 51.864 55.568 50.9147 55.504 49.848H58.512C58.5973 50.7227 59.0027 51.4373 59.728 51.992C60.4747 52.5467 61.4453 52.824 62.64 52.824C63.7493 52.824 64.624 52.5787 65.264 52.088C65.904 51.5973 66.224 50.9787 66.224 50.232C66.224 49.464 65.8827 48.8987 65.2 48.536C64.5173 48.152 63.4613 47.7787 62.032 47.416C60.7307 47.0747 59.664 46.7333 58.832 46.392C58.0213 46.0293 57.3173 45.5067 56.72 44.824C56.144 44.12 55.856 43.2027 55.856 42.072C55.856 41.176 56.1227 40.3547 56.656 39.608C57.1893 38.8613 57.9467 38.2747 58.928 37.848C59.9093 37.4 61.0293 37.176 62.288 37.176C64.2293 37.176 65.7973 37.6667 66.992 38.648C68.1867 39.6293 68.8267 40.9733 68.912 42.68H66C65.936 41.7627 65.5627 41.0267 64.88 40.472C64.2187 39.9173 63.3227 39.64 62.192 39.64C61.1467 39.64 60.3147 39.864 59.696 40.312C59.0773 40.76 58.768 41.3467 58.768 42.072C58.768 42.648 58.9493 43.128 59.312 43.512C59.696 43.8747 60.1653 44.1733 60.72 44.408C61.296 44.6213 62.0853 44.8667 63.088 45.144C64.3467 45.4853 65.3707 45.8267 66.16 46.168C66.9493 46.488 67.6213 46.9787 68.176 47.64C68.752 48.3013 69.0507 49.1653 69.072 50.232C69.072 51.192 68.8053 52.056 68.272 52.824C67.7387 53.592 66.9813 54.2 66 54.648C65.04 55.0747 63.9307 55.288 62.672 55.288ZM76.7348 39.864V50.2C76.7348 51.0533 76.9161 51.6613 77.2788 52.024C77.6414 52.3653 78.2708 52.536 79.1667 52.536H81.3108V55H78.6868C77.0654 55 75.8494 54.6267 75.0388 53.88C74.2281 53.1333 73.8228 51.9067 73.8228 50.2V39.864H71.5508V37.464H73.8228V33.048H76.7348V37.464H81.3108V39.864H76.7348ZM83.751 46.168C83.751 44.376 84.1137 42.808 84.839 41.464C85.5643 40.0987 86.5563 39.0427 87.815 38.296C89.095 37.5493 90.5137 37.176 92.071 37.176C93.607 37.176 94.9403 37.5067 96.071 38.168C97.2017 38.8293 98.0443 39.6613 98.599 40.664V37.464H101.543V55H98.599V51.736C98.023 52.76 97.159 53.6133 96.007 54.296C94.8763 54.9573 93.5537 55.288 92.039 55.288C90.4817 55.288 89.0737 54.904 87.815 54.136C86.5563 53.368 85.5643 52.2907 84.839 50.904C84.1137 49.5173 83.751 47.9387 83.751 46.168ZM98.599 46.2C98.599 44.8773 98.3323 43.7253 97.799 42.744C97.2657 41.7627 96.5403 41.016 95.623 40.504C94.727 39.9707 93.735 39.704 92.647 39.704C91.559 39.704 90.567 39.96 89.671 40.472C88.775 40.984 88.0603 41.7307 87.527 42.712C86.9937 43.6933 86.727 44.8453 86.727 46.168C86.727 47.512 86.9937 48.6853 87.527 49.688C88.0603 50.6693 88.775 51.4267 89.671 51.96C90.567 52.472 91.559 52.728 92.647 52.728C93.735 52.728 94.727 52.472 95.623 51.96C96.5403 51.4267 97.2657 50.6693 97.799 49.688C98.3323 48.6853 98.599 47.5227 98.599 46.2ZM105.376 46.2C105.376 44.3867 105.739 42.808 106.464 41.464C107.189 40.0987 108.192 39.0427 109.472 38.296C110.773 37.5493 112.256 37.176 113.92 37.176C116.075 37.176 117.845 37.6987 119.232 38.744C120.64 39.7893 121.568 41.24 122.016 43.096H118.88C118.581 42.0293 117.995 41.1867 117.12 40.568C116.267 39.9493 115.2 39.64 113.92 39.64C112.256 39.64 110.912 40.216 109.888 41.368C108.864 42.4987 108.352 44.1093 108.352 46.2C108.352 48.312 108.864 49.944 109.888 51.096C110.912 52.248 112.256 52.824 113.92 52.824C115.2 52.824 116.267 52.5253 117.12 51.928C117.973 51.3307 118.56 50.4773 118.88 49.368H122.016C121.547 51.16 120.608 52.6 119.2 53.688C117.792 54.7547 116.032 55.288 113.92 55.288C112.256 55.288 110.773 54.9147 109.472 54.168C108.192 53.4213 107.189 52.3653 106.464 51C105.739 49.6347 105.376 48.0347 105.376 46.2ZM135.694 55L128.814 47.256V55H125.902V31.32H128.814V45.24L135.566 37.464H139.63L131.374 46.2L139.662 55H135.694ZM161.046 55.224C158.934 55.224 156.992 54.7333 155.222 53.752C153.472 52.7707 152.075 51.4053 151.03 49.656C150.005 47.8853 149.493 45.9013 149.493 43.704C149.493 41.5067 150.005 39.5333 151.03 37.784C152.075 36.0347 153.472 34.6693 155.222 33.688C156.992 32.7067 158.934 32.216 161.046 32.216C163.158 32.216 165.088 32.7067 166.838 33.688C168.608 34.6693 169.995 36.0347 170.998 37.784C172.022 39.5333 172.534 41.5067 172.534 43.704C172.534 45.9013 172.022 47.8853 170.998 49.656C169.974 51.4053 168.587 52.7707 166.838 53.752C165.088 54.7333 163.158 55.224 161.046 55.224ZM161.046 50.232C162.838 50.232 164.267 49.6347 165.333 48.44C166.422 47.2453 166.966 45.6667 166.966 43.704C166.966 41.72 166.422 40.1413 165.333 38.968C164.267 37.7733 162.838 37.176 161.046 37.176C159.232 37.176 157.782 37.7627 156.694 38.936C155.627 40.1093 155.094 41.6987 155.094 43.704C155.094 45.688 155.627 47.2773 156.694 48.472C157.782 49.6453 159.232 50.232 161.046 50.232ZM183.61 49.88L187.482 37.144H193.306L186.97 55H180.218L173.882 37.144H179.738L183.61 49.88ZM212.441 45.784C212.441 46.296 212.409 46.8293 212.345 47.384H199.961C200.046 48.4933 200.398 49.3467 201.017 49.944C201.657 50.52 202.436 50.808 203.353 50.808C204.718 50.808 205.668 50.232 206.201 49.08H212.025C211.726 50.2533 211.182 51.3093 210.393 52.248C209.625 53.1867 208.654 53.9227 207.481 54.456C206.308 54.9893 204.996 55.256 203.545 55.256C201.796 55.256 200.238 54.8827 198.873 54.136C197.508 53.3893 196.441 52.3227 195.673 50.936C194.905 49.5493 194.521 47.928 194.521 46.072C194.521 44.216 194.894 42.5947 195.641 41.208C196.409 39.8213 197.476 38.7547 198.841 38.008C200.206 37.2613 201.774 36.888 203.545 36.888C205.273 36.888 206.809 37.2507 208.153 37.976C209.497 38.7013 210.542 39.736 211.289 41.08C212.057 42.424 212.441 43.992 212.441 45.784ZM206.841 44.344C206.841 43.4053 206.521 42.6587 205.881 42.104C205.241 41.5493 204.441 41.272 203.481 41.272C202.564 41.272 201.785 41.5387 201.145 42.072C200.526 42.6053 200.142 43.3627 199.993 44.344H206.841ZM220.8 40.12C221.44 39.1387 222.24 38.3707 223.2 37.816C224.16 37.24 225.226 36.952 226.4 36.952V42.744H224.896C223.53 42.744 222.506 43.0427 221.824 43.64C221.141 44.216 220.8 45.24 220.8 46.712V55H215.328V37.144H220.8V40.12ZM227.927 46.072C227.927 44.216 228.301 42.5947 229.047 41.208C229.815 39.8213 230.871 38.7547 232.215 38.008C233.581 37.2613 235.138 36.888 236.887 36.888C239.127 36.888 240.994 37.4747 242.487 38.648C244.002 39.8213 244.994 41.4747 245.463 43.608H239.639C239.149 42.2427 238.199 41.56 236.791 41.56C235.789 41.56 234.989 41.9547 234.391 42.744C233.794 43.512 233.495 44.6213 233.495 46.072C233.495 47.5227 233.794 48.6427 234.391 49.432C234.989 50.2 235.789 50.584 236.791 50.584C238.199 50.584 239.149 49.9013 239.639 48.536H245.463C244.994 50.6267 244.002 52.2693 242.487 53.464C240.973 54.6587 239.106 55.256 236.887 55.256C235.138 55.256 233.581 54.8827 232.215 54.136C230.871 53.3893 229.815 52.3227 229.047 50.936C228.301 49.5493 227.927 47.928 227.927 46.072ZM253.862 31.32V55H248.39V31.32H253.862ZM265.956 55.256C264.206 55.256 262.628 54.8827 261.22 54.136C259.833 53.3893 258.734 52.3227 257.924 50.936C257.134 49.5493 256.74 47.928 256.74 46.072C256.74 44.2373 257.145 42.6267 257.956 41.24C258.766 39.832 259.876 38.7547 261.284 38.008C262.692 37.2613 264.27 36.888 266.02 36.888C267.769 36.888 269.348 37.2613 270.756 38.008C272.164 38.7547 273.273 39.832 274.084 41.24C274.894 42.6267 275.3 44.2373 275.3 46.072C275.3 47.9067 274.884 49.528 274.052 50.936C273.241 52.3227 272.121 53.3893 270.692 54.136C269.284 54.8827 267.705 55.256 265.956 55.256ZM265.956 50.52C267.001 50.52 267.886 50.136 268.612 49.368C269.358 48.6 269.732 47.5013 269.732 46.072C269.732 44.6427 269.369 43.544 268.644 42.776C267.94 42.008 267.065 41.624 266.02 41.624C264.953 41.624 264.068 42.008 263.364 42.776C262.66 43.5227 262.308 44.6213 262.308 46.072C262.308 47.5013 262.649 48.6 263.332 49.368C264.036 50.136 264.91 50.52 265.956 50.52ZM289.083 36.952C291.173 36.952 292.837 37.6347 294.075 39C295.333 40.344 295.963 42.2 295.963 44.568V55H290.523V45.304C290.523 44.1093 290.213 43.1813 289.595 42.52C288.976 41.8587 288.144 41.528 287.099 41.528C286.053 41.528 285.221 41.8587 284.603 42.52C283.984 43.1813 283.675 44.1093 283.675 45.304V55H278.203V37.144H283.675V39.512C284.229 38.7227 284.976 38.104 285.915 37.656C286.853 37.1867 287.909 36.952 289.083 36.952ZM316.597 45.784C316.597 46.296 316.565 46.8293 316.501 47.384H304.117C304.203 48.4933 304.555 49.3467 305.173 49.944C305.813 50.52 306.592 50.808 307.509 50.808C308.875 50.808 309.824 50.232 310.357 49.08H316.181C315.883 50.2533 315.339 51.3093 314.549 52.248C313.781 53.1867 312.811 53.9227 311.637 54.456C310.464 54.9893 309.152 55.256 307.701 55.256C305.952 55.256 304.395 54.8827 303.029 54.136C301.664 53.3893 300.597 52.3227 299.829 50.936C299.061 49.5493 298.677 47.928 298.677 46.072C298.677 44.216 299.051 42.5947 299.797 41.208C300.565 39.8213 301.632 38.7547 302.997 38.008C304.363 37.2613 305.931 36.888 307.701 36.888C309.429 36.888 310.965 37.2507 312.309 37.976C313.653 38.7013 314.699 39.736 315.445 41.08C316.213 42.424 316.597 43.992 316.597 45.784ZM310.997 44.344C310.997 43.4053 310.677 42.6587 310.037 42.104C309.397 41.5493 308.597 41.272 307.637 41.272C306.72 41.272 305.941 41.5387 305.301 42.072C304.683 42.6053 304.299 43.3627 304.149 44.344H310.997Z" fill="#144360"/>
<rect y="40" width="5" height="15" fill="#D9D9D9"/>
<rect x="5" y="55" width="5" height="31" transform="rotate(-90 5 55)" fill="#D9D9D9"/>
<rect x="8" y="47" width="4" height="25" transform="rotate(-90 8 47)" fill="#144360"/>
<rect x="7.76945" y="37.1582" width="4" height="25" transform="rotate(-81.6497 7.76945 37.1582)" fill="#1F4E6C" fill-opacity="0.89"/>
<rect x="11" y="24.6177" width="4" height="25" transform="rotate(-67.4484 11 24.6177)" fill="#2F7994" fill-opacity="0.95"/>
<rect x="16" y="14.0559" width="4" height="25" transform="rotate(-54.212 16 14.0559)" fill="#3699A8" fill-opacity="0.75"/>
<rect x="26" y="2.80504" width="4" height="25" transform="rotate(-34.1255 26 2.80504)" fill="#8CD3D7"/>
<rect x="36" y="40" width="5" height="15" fill="#D9D9D9"/>
</svg>
